<svg width="38" height="38" viewBox="0 0 38 38" fill="none" xmlns="http://www.w3.org/2000/svg">
<rect x="0.392578" width="37.5769" height="37.5769" rx="18.7884" fill="url(#paint0_linear_2_39)"/>
<path d="M25.17 11.4092C23.8315 10.7569 22.3962 10.2764 20.8955 10.0012C20.8682 9.99584 20.8409 10.0091 20.8268 10.0357C20.6422 10.3844 20.4377 10.8392 20.2945 11.1968C18.6804 10.9401 17.0746 10.9401 15.4936 11.1968C15.3504 10.8313 15.1385 10.3844 14.9531 10.0357C14.939 10.01 14.9117 9.99673 14.8844 10.0012C13.3845 10.2755 11.9492 10.7561 10.6099 11.4092C10.5983 11.4145 10.5884 11.4234 10.5818 11.4349C7.8593 15.7546 7.1135 19.9682 7.47936 24.1295C7.48102 24.1498 7.49178 24.1693 7.50668 24.1817C9.30289 25.5827 11.0428 26.4332 12.7504 26.9969C12.7778 27.0058 12.8067 26.9951 12.8241 26.9712C13.2281 26.3854 13.5881 25.7676 13.8969 25.118C13.9151 25.08 13.8977 25.0348 13.8605 25.0198C13.2893 24.7897 12.7455 24.5091 12.2223 24.1906C12.181 24.1649 12.1776 24.102 12.2157 24.0719C12.3258 23.9843 12.4359 23.8932 12.541 23.8011C12.5601 23.7843 12.5866 23.7808 12.6089 23.7914C16.0457 25.4579 19.7664 25.4579 23.1627 23.7914C23.185 23.7799 23.2115 23.7834 23.2314 23.8002C23.3365 23.8923 23.4466 23.9843 23.5575 24.0719C23.5956 24.102 23.5931 24.1649 23.5517 24.1906C23.0286 24.5153 22.4847 24.7897 21.9128 25.0189C21.8755 25.034 21.859 25.08 21.8772 25.118C22.1925 25.7667 22.5526 26.3845 22.9491 26.9704C22.9657 26.9951 22.9955 27.0058 23.0228 26.9969C24.7387 26.4332 26.4786 25.5827 28.2748 24.1817C28.2906 24.1693 28.3005 24.1507 28.3022 24.1304C28.74 19.3194 27.5688 15.1404 25.1973 11.4358C25.1915 11.4234 25.1816 11.4145 25.17 11.4092ZM14.4101 21.5957C13.3754 21.5957 12.5228 20.5868 12.5228 19.3478C12.5228 18.1087 13.3589 17.0998 14.4101 17.0998C15.4696 17.0998 16.3139 18.1176 16.2973 19.3478C16.2973 20.5868 15.4613 21.5957 14.4101 21.5957ZM21.388 21.5957C20.3533 21.5957 19.5007 20.5868 19.5007 19.3478C19.5007 18.1087 20.3367 17.0998 21.388 17.0998C22.4475 17.0998 23.2918 18.1176 23.2753 19.3478C23.2753 20.5868 22.4475 21.5957 21.388 21.5957Z" fill="white"/>
<defs>
<linearGradient id="paint0_linear_2_39" x1="19.181" y1="0" x2="19.181" y2="37.5769" gradientUnits="userSpaceOnUse">
<stop stop-color="#6A2CE2"/>
<stop offset="1" stop-color="#C92CE2"/>
</linearGradient>
</defs>
</svg>
