<svg width="42" height="67" viewBox="0 0 42 67" fill="none" xmlns="http://www.w3.org/2000/svg">
<path d="M0.248531 34.2106C0.331461 34.294 0.331461 34.294 0.414392 34.3775C0.497322 34.3775 0.497322 34.4609 0.580253 34.4609L19.4055 46.1421C19.6543 46.309 19.8201 46.3924 19.986 46.4758C20.1519 46.6427 20.3177 46.6427 20.4836 46.6427C20.6494 46.6427 20.8153 46.5593 20.8982 46.4758C20.9812 46.4758 20.9812 46.3924 21.0641 46.3924L41.0504 35.045C41.2991 34.9615 41.3821 34.6278 41.3821 34.3775C41.3821 34.2106 41.2991 34.1272 41.2991 34.0437C41.2162 33.8768 41.2162 33.7934 41.1333 33.71L22.0593 0.585447C21.9763 0.335135 21.8934 0.251698 21.8105 0.251698C21.5617 0.00138702 21.0641 0.00138702 20.8153 0.251698C20.7324 0.335135 20.6494 0.418573 20.6494 0.50201L1.07784 31.8744L0.1656 33.2928C-0.0831914 33.6265 -0.000260815 33.9603 0.248531 34.2106ZM21.23 44.8071L21.5617 26.0338L37.7331 33.7934C38.1478 34.0437 38.6454 34.2106 39.06 34.4609C39.143 34.4609 39.143 34.4609 39.2259 34.5443L21.23 44.8071ZM22.2251 24.7822C22.0593 24.6988 21.8105 24.6153 21.6446 24.5319L22.0593 3.33887L38.9771 32.7922L22.2251 24.7822ZM2.23886 33.8768C2.40473 33.7934 2.48766 33.7934 2.65352 33.71L3.56575 33.2928C4.47799 32.8756 5.47315 32.4584 6.38539 32.0412L19.3226 26.3675C19.5713 26.2841 19.8201 26.1172 20.0689 26.0338L19.7372 44.6402L2.23886 33.8768ZM20.5665 3.172C20.4007 10.2641 20.3177 17.3563 20.1519 24.4485L2.48766 32.2081L20.5665 3.172Z" fill="#8900FF"/>
<path d="M40.9676 37.7148C40.8847 37.6314 40.7188 37.5479 40.5529 37.5479C40.3871 37.5479 40.3041 37.5479 40.2212 37.6314L40.1383 37.7148L20.4837 48.9788L1.24385 37.1307C1.16092 37.0473 0.995057 36.9639 0.746265 36.9639C0.497473 36.9639 0.248682 37.0473 0.0828205 37.2976C-0.0830406 37.5479 -0.000110045 37.7982 0.0828205 38.0485L19.4056 66.584C19.4886 66.8344 19.8203 67.0012 20.0691 67.0012C20.3179 67.0012 20.5667 66.8344 20.6496 66.6675L40.9676 38.9664C41.0505 38.8829 41.2164 38.716 41.2164 38.3823C41.2993 38.132 41.1335 37.8817 40.9676 37.7148ZM18.4105 49.396L19.6544 50.1469L19.4056 64.0809L3.06832 39.8842L18.4105 49.396ZM20.9813 63.9975L21.2301 50.2304V50.1469L38.148 40.4682L20.9813 63.9975Z" fill="#D32AE1"/>
<path d="M21.396 0.16707C21.396 0.417381 21.396 0.584256 21.396 0.75113C21.2301 8.42734 21.1472 16.187 20.9813 23.8632C20.9813 24.0301 20.9813 24.1135 20.9813 24.2804C20.9813 24.4473 20.8155 24.4473 20.7325 24.5307C20.0691 24.8645 19.4056 25.1148 18.6593 25.4485C17.6641 25.8657 16.7519 26.2829 15.7567 26.7001C14.5957 27.2007 13.4346 27.7013 12.3565 28.2019C11.4443 28.6191 10.4491 29.0363 9.5369 29.4535C8.37587 29.9541 7.29778 30.4547 6.13675 30.9554C5.14158 31.3725 4.22934 31.7897 3.23418 32.2069C2.4878 32.5407 1.6585 32.8744 0.912122 33.2082C0.829191 33.2082 0.829191 33.2916 0.746261 33.2916C0.746261 33.2916 0.746261 33.2916 0.66333 33.2916C0.995052 32.6241 1.32677 32.1235 1.6585 31.7063C3.31711 28.9529 5.05865 26.1994 6.80019 23.3626C8.62466 20.3589 10.5321 17.4386 12.3565 14.4348C14.0981 11.6814 15.7567 8.92797 17.4982 6.17454C18.7422 4.17205 19.9862 2.16956 21.2301 0.16707C21.2301 0.250507 21.313 0.16707 21.396 0.16707C21.313 0.0836329 21.313 0.0836329 21.396 0.16707C21.313 0.16707 21.313 0.16707 21.396 0.16707Z" fill="url(#paint0_linear_2_507)"/>
<path d="M40.6357 33.8755C40.7186 33.8755 40.7186 33.8755 40.6357 33.8755C39.06 34.8768 37.4843 35.7946 35.8257 36.6289C30.767 39.5492 25.7082 42.3861 20.6494 45.3064C20.5665 45.3064 20.5665 45.3898 20.4836 45.3898C20.4006 45.3898 20.4006 45.3064 20.4006 45.223C20.4006 45.1395 20.4006 45.0561 20.4006 44.9727C20.4836 38.2977 20.6494 31.5393 20.7324 24.8643C20.7324 24.7809 20.7324 24.614 20.7324 24.5306C20.8153 24.3637 20.8982 24.4471 20.9811 24.4471C21.3958 24.614 21.8105 24.8643 22.2251 25.0312C23.4691 25.6152 24.713 26.1993 25.957 26.8668C27.0351 27.3674 28.1132 27.868 29.1913 28.4521C30.2694 28.9527 31.3475 29.5368 32.5085 30.0374C33.4207 30.4546 34.4159 30.9552 35.3281 31.3724C36.2404 31.7896 37.2355 32.2902 38.1478 32.7074C38.8942 33.0412 39.6405 33.3749 40.3869 33.7921C40.5528 33.7921 40.6357 33.7921 40.6357 33.8755Z" fill="url(#paint1_linear_2_507)"/>
<path d="M0.746338 33.2087C0.746338 33.1252 0.746338 33.1252 0.746338 33.2087C1.82444 32.708 2.8196 32.2908 3.81477 31.7902C5.14166 31.2062 6.46855 30.6221 7.79544 30.038C8.7906 29.6209 9.8687 29.1202 10.8639 28.703C12.3566 28.0356 13.8494 27.3681 15.3421 26.784C16.3373 26.3668 17.4154 25.8662 18.4106 25.449C19.1569 25.1153 19.9033 24.7815 20.5667 24.5312C20.6497 24.5312 20.7326 24.4478 20.8155 24.4478C20.8155 24.4478 20.8155 24.4478 20.8155 24.5312C20.8155 24.6146 20.8155 24.6981 20.8155 24.7815C20.7326 31.6233 20.5667 38.4652 20.4838 45.307C20.4838 45.3905 20.4009 45.4739 20.4838 45.5573C20.4009 45.6408 20.4009 45.5573 20.318 45.5573C20.0692 45.3905 19.7374 45.2236 19.4886 45.0567C13.2689 41.2186 7.04906 37.3805 0.912199 33.5424C0.912199 33.2921 0.829268 33.2087 0.746338 33.2087Z" fill="url(#paint2_linear_2_507)"/>
<path d="M40.5529 37.7143C40.5529 37.7977 40.5529 37.8812 40.4699 37.8812C34.3331 46.2249 28.1962 54.5686 22.1423 62.9123C21.4788 63.7467 20.8983 64.6645 20.2349 65.4989V65.4154C20.2349 65.332 20.2349 65.332 20.2349 65.2485C20.3178 59.992 20.4007 54.7355 20.4837 49.3955C20.4837 49.3121 20.4837 49.2286 20.4837 49.0617C21.8105 48.3108 23.2204 47.4764 24.5473 46.7255C29.8548 43.7218 35.1624 40.718 40.4699 37.6309C40.4699 37.7977 40.4699 37.7977 40.5529 37.7143Z" fill="url(#paint3_linear_2_507)"/>
<path d="M-0.000118884 37.7543C-0.000118884 37.8378 -0.000116987 37.9212 0.0828136 37.9212C6.21968 46.2649 12.3565 54.6086 18.4105 62.9523C19.0739 63.7867 19.6544 64.7045 20.3179 65.5389V65.4554C20.3179 65.372 20.3179 65.372 20.3179 65.2886C20.2349 60.032 20.152 54.7755 20.0691 49.4355C20.0691 49.3521 20.0691 49.2687 20.0691 49.1018C18.7422 48.3508 17.3324 47.5165 16.0055 46.7655C10.6979 43.7618 5.39037 40.7581 0.0828136 37.6709C0.0828136 37.8378 0.0828117 37.8378 -0.000118884 37.7543Z" fill="url(#paint4_linear_2_507)"/>
<path d="M20.8984 24.3647C20.8984 24.2813 20.8984 24.1979 20.8984 24.1144C21.0643 16.1879 21.1472 8.3448 21.3131 0.41828C21.3131 0.334843 21.3131 0.251406 21.3131 0.167969C27.6987 11.2651 34.0844 22.3622 40.47 33.4594C40.553 33.5428 40.6359 33.7097 40.6359 33.7931C40.2213 33.6262 39.8066 33.3759 39.392 33.2091C38.8944 32.9587 38.3139 32.7084 37.8163 32.4581C37.4845 32.2913 37.1528 32.1244 36.8211 31.9575C36.2406 31.7072 35.743 31.4569 35.1625 31.2066C34.8308 31.0397 34.499 30.8728 34.1673 30.7059C33.5039 30.3722 32.7575 30.0384 32.0941 29.7047C31.7623 29.5378 31.3477 29.371 31.016 29.2041C30.5184 28.9538 30.0208 28.7035 29.5232 28.4531C29.1915 28.2863 28.8598 28.1194 28.528 27.9525C27.8646 27.6188 27.1182 27.285 26.4548 26.9513C26.1231 26.7844 25.7084 26.6175 25.3767 26.4507C24.8791 26.2003 24.3815 25.95 23.8839 25.6997C23.5522 25.5328 23.2205 25.366 22.8888 25.1991C22.2253 25.0322 21.5619 24.6985 20.8984 24.3647Z" fill="url(#paint5_linear_2_507)"/>
<defs>
<linearGradient id="paint0_linear_2_507" x1="11.1913" y1="9.09569" x2="10.0242" y2="73.8904" gradientUnits="userSpaceOnUse">
<stop stop-color="#D32AE1"/>
<stop offset="0.2923" stop-color="#D32AE1"/>
<stop offset="0.5238" stop-color="#8E2CE2"/>
<stop offset="0.6012" stop-color="#6E2CE2"/>
<stop offset="0.8237" stop-color="#6E2CE2"/>
<stop offset="0.8848" stop-color="#6E2CE2"/>
<stop offset="0.9489" stop-color="#6E2CE2"/>
<stop offset="1" stop-color="#6E2CE2"/>
</linearGradient>
<linearGradient id="paint1_linear_2_507" x1="32.0621" y1="41.8239" x2="20.1032" y2="25.3478" gradientUnits="userSpaceOnUse">
<stop stop-color="#BE19CC"/>
<stop offset="0.729167" stop-color="#660BB5"/>
</linearGradient>
<linearGradient id="paint2_linear_2_507" x1="9.3602" y1="40.3971" x2="20.777" y2="25.8427" gradientUnits="userSpaceOnUse">
<stop stop-color="#BA13C8"/>
<stop offset="1" stop-color="#4E16B1"/>
</linearGradient>
<linearGradient id="paint3_linear_2_507" x1="36.9484" y1="39.9012" x2="18.323" y2="66.3122" gradientUnits="userSpaceOnUse">
<stop stop-color="#6E2CE2"/>
<stop offset="1" stop-color="#D22AE1"/>
</linearGradient>
<linearGradient id="paint4_linear_2_507" x1="3.60431" y1="39.9413" x2="22.2298" y2="66.3523" gradientUnits="userSpaceOnUse">
<stop stop-color="#6E2CE2"/>
<stop offset="1" stop-color="#D22AE1"/>
</linearGradient>
<linearGradient id="paint5_linear_2_507" x1="33.5001" y1="19.0837" x2="22.6356" y2="24.483" gradientUnits="userSpaceOnUse">
<stop stop-color="#D22AE1"/>
<stop offset="1" stop-color="#6E2CE2"/>
</linearGradient>
</defs>
</svg>
