<svg width="38" height="38" viewBox="0 0 38 38" fill="none" xmlns="http://www.w3.org/2000/svg">
<path d="M0.214844 18.7884C0.214844 8.41187 8.62671 0 19.0033 0C29.3799 0 37.7917 8.41187 37.7917 18.7884C37.7917 29.165 29.3799 37.5769 19.0033 37.5769C8.62671 37.5769 0.214844 29.165 0.214844 18.7884Z" fill="url(#paint0_linear_2_97)"/>
<path fill-rule="evenodd" clip-rule="evenodd" d="M7.90496 17.7489C13.8105 15.2087 17.7485 13.534 19.7189 12.7249C25.3447 10.4147 26.5137 10.0134 27.2756 10.0001C27.4432 9.99723 27.8179 10.0382 28.0606 10.2327C28.2656 10.3968 28.3219 10.6186 28.3489 10.7743C28.3759 10.93 28.4095 11.2846 28.3828 11.5616C28.0779 14.7241 26.7588 22.3986 26.0877 25.9406C25.8037 27.4394 25.2446 27.9419 24.7032 27.9911C23.5268 28.098 22.6335 27.2235 21.4941 26.4861C19.7112 25.3323 18.7039 24.614 16.9732 23.488C14.9732 22.1868 16.2697 21.4716 17.4096 20.3027C17.7079 19.9969 22.8912 15.3423 22.9915 14.92C23.004 14.8672 23.0157 14.6704 22.8972 14.5664C22.7788 14.4625 22.604 14.498 22.4778 14.5263C22.299 14.5664 19.4507 16.425 13.9329 20.1022C13.1245 20.6503 12.3922 20.9174 11.736 20.9034C11.0127 20.888 9.62138 20.4996 8.58705 20.1677C7.3184 19.7606 6.31011 19.5453 6.39791 18.8539C6.44364 18.4937 6.94599 18.1254 7.90496 17.7489Z" fill="white"/>
<defs>
<linearGradient id="paint0_linear_2_97" x1="19.0033" y1="0" x2="19.0033" y2="37.2982" gradientUnits="userSpaceOnUse">
<stop stop-color="#6D2CE2"/>
<stop offset="1" stop-color="#C72CE2"/>
</linearGradient>
</defs>
</svg>
