<svg width="38" height="38" viewBox="0 0 38 38" fill="none" xmlns="http://www.w3.org/2000/svg">
<rect width="37.5769" height="37.5769" rx="18.7884" fill="url(#paint0_linear_2_37)"/>
<path d="M15.3503 28.6996C23.683 28.6996 28.2392 21.7948 28.2392 15.8107C28.2392 15.6134 28.2392 15.4161 28.2298 15.2282C29.1128 14.5894 29.8832 13.7909 30.4938 12.8797C29.6859 13.2367 28.8122 13.4809 27.8916 13.5936C28.831 13.03 29.545 12.1469 29.8832 11.0854C29.0095 11.6021 28.0419 11.9778 27.0085 12.1845C26.1818 11.3015 25.0076 10.7566 23.7018 10.7566C21.2029 10.7566 19.1737 12.7857 19.1737 15.2846C19.1737 15.6416 19.2113 15.9892 19.2959 16.318C15.5288 16.1301 12.1938 14.3264 9.95802 11.5833C9.57285 12.2503 9.34739 13.03 9.34739 13.8567C9.34739 15.4255 10.1459 16.8159 11.3671 17.6238C10.625 17.605 9.92983 17.3983 9.31921 17.0601C9.31921 17.0789 9.31921 17.0977 9.31921 17.1165C9.31921 19.3147 10.8786 21.1372 12.9548 21.5599C12.579 21.6633 12.1751 21.7197 11.7617 21.7197C11.4705 21.7197 11.1887 21.6915 10.9068 21.6351C11.4799 23.4388 13.1521 24.7446 15.1342 24.7822C13.5842 25.994 11.6302 26.7174 9.50709 26.7174C9.14072 26.7174 8.78374 26.6986 8.42676 26.6516C10.4089 27.948 12.7951 28.6996 15.3503 28.6996Z" fill="white"/>
<defs>
<linearGradient id="paint0_linear_2_37" x1="18.7884" y1="0" x2="18.7884" y2="37.5769" gradientUnits="userSpaceOnUse">
<stop stop-color="#6A2CE2"/>
<stop offset="1" stop-color="#C92CE2"/>
</linearGradient>
</defs>
</svg>
